<?xml version="1.0" encoding="utf-8"?>
<!-- Generator: Adobe Illustrator 16.0.2, SVG Export Plug-In . SVG Version: 6.00 Build 0)  -->
<!DOCTYPE svg PUBLIC "-//W3C//DTD SVG 1.1//EN" "http://www.w3.org/Graphics/SVG/1.1/DTD/svg11.dtd">
<svg version="1.1" id="Layer_1" xmlns="http://www.w3.org/2000/svg" xmlns:xlink="http://www.w3.org/1999/xlink" x="0px" y="0px"
	 width="200px" height="56px" viewBox="0 0 200 56" enable-background="new 0 0 200 56" xml:space="preserve">
<g>
	<g>
		<path fill="#FFFFFF" d="M51.03,34.107V14.34h3.09v19.77h-3.09V34.107z"/>
		<path fill="#FFFFFF" d="M61.314,21.399v12.708h-3.09v-20.7L70.639,27.02V14.34h3.117v20.676L61.314,21.399z"/>
		<path fill="#FFFFFF" d="M85.457,27.368l5.195-13.028h3.357l-8.472,20.646L76.478,14.34h3.41L85.457,27.368z"/>
		<path fill="#FFFFFF" d="M99.66,33.335c-1.199-0.506-2.238-1.226-3.144-2.131c-0.906-0.906-1.625-1.945-2.131-3.145
			c-0.506-1.198-0.773-2.504-0.773-3.836s0.267-2.637,0.773-3.863c0.506-1.172,1.226-2.211,2.131-3.144
			c0.906-0.905,1.945-1.599,3.144-2.104c1.199-0.505,2.504-0.772,3.836-0.772s2.637,0.267,3.863,0.772
			c1.172,0.506,2.211,1.199,3.143,2.104c0.906,0.933,1.6,1.972,2.105,3.144c0.506,1.227,0.772,2.531,0.772,3.863
			s-0.269,2.638-0.772,3.836c-0.506,1.199-1.199,2.238-2.105,3.145c-0.932,0.905-1.971,1.625-3.143,2.131
			c-1.228,0.506-2.531,0.772-3.863,0.772S100.857,33.841,99.66,33.335z M98.701,19.429c-1.279,1.278-1.998,2.983-1.998,4.795
			c0,1.813,0.719,3.518,1.998,4.795c1.279,1.278,2.984,1.998,4.795,1.998c1.813,0,3.518-0.72,4.795-1.998
			c1.279-1.277,1.998-2.982,1.998-4.795c0-1.812-0.719-3.517-1.998-4.795c-1.277-1.279-2.982-1.998-4.795-1.998
			C101.686,17.431,99.979,18.149,98.701,19.429z"/>
		<path fill="#FFFFFF" d="M116.875,34.107V14.34h3.092v19.77h-3.092V34.107z"/>
		<path fill="#FFFFFF" d="M138.59,32.482c-0.506,0.318-1.039,0.611-1.6,0.853c-1.225,0.506-2.529,0.772-3.861,0.772
			c-1.334,0-2.639-0.268-3.838-0.772s-2.238-1.226-3.143-2.131c-0.906-0.906-1.625-1.945-2.133-3.145
			c-0.507-1.198-0.771-2.504-0.771-3.836s0.266-2.637,0.771-3.863c0.508-1.172,1.227-2.238,2.133-3.144
			c0.903-0.905,1.942-1.625,3.143-2.104c1.199-0.533,2.504-0.772,3.838-0.772c1.332,0,2.637,0.239,3.861,0.772
			c0.135,0.053,0.293,0.133,0.428,0.187v3.649c-1.199-0.985-2.691-1.518-4.289-1.518c-1.813,0-3.518,0.691-4.797,1.998
			c-1.279,1.278-1.998,2.983-1.998,4.795c0,1.813,0.719,3.518,1.998,4.796c1.279,1.277,2.984,1.996,4.797,1.996
			c1.811,0,3.516-0.719,4.795-1.996c0.24-0.24,0.453-0.479,0.666-0.747V32.482L138.59,32.482z"/>
		<path fill="#FFFFFF" d="M142.109,34.107V14.34h3.092v19.77h-3.092V34.107z"/>
		<path fill="#FFFFFF" d="M152.395,21.399v12.708h-3.09v-20.7l12.414,13.613V14.34h3.117v20.676L152.395,21.399z"/>
		<path fill="#FFFFFF" d="M184.234,26.647v5.355l-0.691,0.48c-0.027,0-0.027,0-0.055,0.024c-0.025,0.027-0.08,0.056-0.105,0.056
			c-0.027,0.024-0.053,0.053-0.08,0.053c-0.027,0.027-0.053,0.053-0.107,0.053c-0.024,0.027-0.053,0.053-0.104,0.08
			c-0.026,0.027-0.055,0.027-0.079,0.053c-0.027,0.027-0.054,0.027-0.08,0.055c-0.054,0.025-0.08,0.025-0.134,0.054
			c-0.026,0.026-0.055,0.026-0.08,0.053c-0.026,0.027-0.079,0.054-0.133,0.054c-0.026,0.026-0.026,0.026-0.055,0.055
			c-0.025,0-0.025,0-0.054,0c-0.026,0.025-0.08,0.053-0.133,0.08c-0.053,0.024-0.133,0.053-0.188,0.08c0,0,0,0-0.025,0.024
			c-1.119,0.507-2.291,0.772-3.545,0.854c0,0,0,0-0.025,0c-0.053,0-0.133,0-0.213,0h-0.026c-0.08,0-0.16,0-0.24,0
			c-1.063,0-2.131-0.16-3.117-0.506c-0.024,0-0.024,0-0.024,0c-0.107-0.027-0.188-0.08-0.293-0.107
			c-0.135-0.053-0.269-0.107-0.4-0.16c-0.346-0.133-0.666-0.293-0.959-0.479c-0.799-0.428-1.545-0.986-2.186-1.652
			c-0.904-0.906-1.625-1.945-2.131-3.145c-0.373-0.905-0.64-1.864-0.72-2.85c-0.026-0.32-0.053-0.666-0.053-0.986
			c0-0.16,0-0.346,0-0.506c0.08-1.146,0.317-2.291,0.771-3.357c0.506-1.172,1.228-2.238,2.131-3.144
			c0.906-0.905,1.945-1.625,3.146-2.104c1.198-0.533,2.504-0.772,3.836-0.772c0.08,0,0.16,0,0.24,0h0.026c0.08,0,0.16,0,0.213,0
			c0.025,0,0.025,0,0.025,0c0.08,0,0.16,0,0.24,0.026c1.146,0.08,2.266,0.346,3.33,0.826c0,0,0,0.026,0.027,0.026
			c0.053,0.026,0.106,0.054,0.16,0.08c0.024,0,0.024,0,0.024,0v3.649c-0.397-0.346-0.853-0.612-1.332-0.852
			c-0.397-0.188-0.824-0.347-1.226-0.453c-0.026,0-0.053,0-0.08-0.027c-0.026,0-0.053,0-0.08,0
			c-0.026-0.026-0.053-0.026-0.104-0.026c0,0-0.026,0-0.055-0.026c-0.104-0.027-0.24-0.027-0.347-0.053c-0.026,0-0.026,0-0.053,0
			c-0.027,0-0.08-0.027-0.107-0.027c-0.026,0-0.026,0-0.053,0s-0.08,0-0.106-0.027c-0.024,0-0.054,0-0.08,0c-0.054,0-0.104,0-0.16,0
			c-0.024,0-0.053-0.025-0.078-0.025c-0.026,0-0.055,0-0.079,0c-0.027,0-0.08,0-0.107,0s-0.053,0-0.053,0c-0.054,0-0.133,0-0.188,0
			c-1.252,0-2.451,0.319-3.49,0.959c-0.024,0.026-0.079,0.053-0.133,0.08c-0.426,0.266-0.826,0.586-1.172,0.959
			c-0.106,0.105-0.24,0.213-0.347,0.346c0,0,0,0.027-0.026,0.027c-0.133,0.159-0.24,0.319-0.347,0.479
			c-0.026,0.027-0.055,0.054-0.055,0.054c-0.053,0.08-0.104,0.16-0.158,0.239c-0.026,0.027-0.055,0.08-0.055,0.107
			c-0.398,0.639-0.666,1.305-0.826,2.024c-0.024,0.026-0.024,0.026-0.024,0.054c-0.054,0.266-0.106,0.533-0.134,0.799
			c0,0.107,0,0.213,0,0.293c-0.026,0.133-0.026,0.24-0.026,0.373c0,0.107,0,0.213,0.026,0.347c0.025,0.506,0.105,1.013,0.238,1.491
			c0.32,1.119,0.906,2.132,1.732,2.958c1.279,1.277,2.984,1.996,4.795,1.996c0.055,0,0.135,0,0.188,0c0.025,0,0.054,0,0.08-0.024
			c0.025,0,0.08,0,0.105,0c0.027,0,0.055,0,0.08,0c0.027,0,0.053,0,0.08,0c0.053,0,0.08,0,0.133,0c0-0.027,0.027-0.027,0.055-0.027
			c0.025,0,0.08,0,0.105,0c0.027,0,0.027,0,0.053,0c0.188-0.024,0.4-0.079,0.588-0.104c0.025,0,0.025,0,0.053-0.027
			c0.025,0,0.08,0,0.105-0.027c0.027,0,0.055,0,0.08,0c0.027-0.024,0.055-0.024,0.08-0.024c0.027-0.027,0.08-0.027,0.107-0.027
			c0.024,0,0.053-0.026,0.053-0.026c0.373-0.105,0.746-0.238,1.092-0.427c0,0,0,0,0.027,0v-3.65h-3.73v-2.797h6.82v2.792H184.234z"
			/>
	</g>
	<g>
		<path fill="#FFFFFF" d="M55.173,42.913h-1.998l-0.477,1.203H51.73l2.444-5.873l2.437,5.873H55.65L55.173,42.913z M54.855,42.126
			l-0.681-1.711l-0.681,1.711H54.855z"/>
		<path fill="#FFFFFF" d="M63.792,43.654c-0.144,0.091-0.295,0.175-0.454,0.242c-0.348,0.144-0.719,0.22-1.097,0.22
			c-0.378,0-0.75-0.076-1.09-0.22c-0.34-0.145-0.636-0.348-0.893-0.604c-0.257-0.257-0.462-0.553-0.605-0.894
			c-0.144-0.342-0.22-0.713-0.22-1.09c0-0.379,0.076-0.75,0.22-1.098c0.144-0.334,0.348-0.637,0.605-0.895
			c0.257-0.256,0.553-0.461,0.893-0.599c0.34-0.149,0.711-0.219,1.09-0.219c0.379,0,0.75,0.067,1.097,0.219
			c0.038,0.017,0.083,0.039,0.121,0.054v1.037c-0.34-0.279-0.764-0.433-1.218-0.433c-0.515,0-0.999,0.197-1.362,0.567
			c-0.363,0.363-0.568,0.849-0.568,1.363c0,0.514,0.205,0.998,0.568,1.361c0.363,0.363,0.848,0.568,1.362,0.568
			c0.514,0,0.999-0.205,1.362-0.568c0.068-0.068,0.128-0.137,0.189-0.211V43.654z"/>
		<path fill="#FFFFFF" d="M66.151,43.896c-0.34-0.145-0.636-0.348-0.893-0.604c-0.258-0.258-0.462-0.553-0.605-0.894
			c-0.144-0.342-0.22-0.713-0.22-1.09c0-0.379,0.076-0.75,0.22-1.098c0.144-0.334,0.348-0.629,0.605-0.895
			c0.257-0.256,0.552-0.453,0.893-0.599c0.341-0.143,0.712-0.219,1.09-0.219c0.379,0,0.75,0.076,1.098,0.219
			c0.333,0.146,0.628,0.343,0.893,0.599c0.257,0.266,0.454,0.561,0.598,0.895c0.144,0.348,0.219,0.719,0.219,1.098
			c0,0.377-0.076,0.748-0.219,1.09c-0.144,0.341-0.341,0.636-0.598,0.894c-0.265,0.258-0.56,0.461-0.893,0.604
			c-0.348,0.144-0.719,0.22-1.098,0.22C66.863,44.116,66.492,44.04,66.151,43.896z M65.878,39.945
			c-0.363,0.363-0.567,0.849-0.567,1.363s0.204,0.998,0.567,1.361c0.363,0.363,0.848,0.568,1.362,0.568
			c0.514,0,0.999-0.205,1.362-0.568c0.363-0.363,0.568-0.848,0.568-1.361c0-0.516-0.205-1-0.568-1.363
			c-0.363-0.362-0.848-0.567-1.362-0.567C66.726,39.378,66.242,39.583,65.878,39.945z"/>
		<path fill="#FFFFFF" d="M75.443,44.116v-2.982l-1.756,2.619l-1.763-2.619v2.982h-0.878v-5.873l2.641,3.937l2.642-3.937v5.873
			H75.443z"/>
		<path fill="#FFFFFF" d="M78.25,38.501h0.923c0.742,0,1.173,0.304,1.4,0.554c0.303,0.331,0.454,0.778,0.454,1.301
			s-0.151,0.977-0.454,1.303c-0.227,0.258-0.658,0.561-1.4,0.561h-0.787v1.898h-0.878v-5.615L78.25,38.501L78.25,38.501z
			 M80.24,40.354c0-0.219-0.045-0.537-0.25-0.764c-0.182-0.197-0.454-0.303-0.817-0.303h-0.787v2.135h0.787
			c0.363,0,0.636-0.1,0.817-0.295C80.195,40.898,80.24,40.583,80.24,40.354z"/>
		<path fill="#FFFFFF" d="M84.981,44.116h-2.354h-0.87v-5.615h0.878v4.819h2.346V44.116L84.981,44.116z"/>
		<path fill="#FFFFFF" d="M86.506,40.786h2.051v0.795h-2.051v1.739h2.49v0.796h-2.498h-0.87v-5.615h0.87h2.498v0.787h-2.49V40.786z"
			/>
		<path fill="#FFFFFF" d="M93.647,39.288h-1.544v4.828h-0.885v-4.828h-1.544v-0.787h3.973V39.288z"/>
		<path fill="#FFFFFF" d="M95.339,40.786h2.051v0.795h-2.051v1.739h2.49v0.796h-2.497h-0.871v-5.615h0.871h2.497v0.787h-2.49V40.786
			z"/>
		<path fill="#FFFFFF" d="M101.143,44.116v-5.615h0.877v5.615H101.143z"/>
		<path fill="#FFFFFF" d="M104.064,40.507v3.609h-0.877v-5.882l3.524,3.867V38.5h0.888v5.873L104.064,40.507z"/>
		<path fill="#FFFFFF" d="M110.926,42.202l1.477-3.701h0.953l-2.405,5.865l-2.572-5.865h0.97L110.926,42.202z"/>
		<path fill="#FFFFFF" d="M114.965,43.896c-0.34-0.145-0.635-0.348-0.893-0.604s-0.463-0.553-0.605-0.894
			c-0.145-0.342-0.221-0.713-0.221-1.09c0-0.379,0.076-0.75,0.221-1.098c0.143-0.334,0.348-0.629,0.605-0.895
			c0.258-0.256,0.553-0.453,0.893-0.599c0.34-0.143,0.711-0.219,1.09-0.219s0.75,0.076,1.098,0.219
			c0.332,0.146,0.63,0.343,0.894,0.599c0.259,0.266,0.455,0.561,0.599,0.895c0.145,0.348,0.221,0.719,0.221,1.098
			c0,0.377-0.076,0.748-0.221,1.09c-0.144,0.341-0.34,0.636-0.599,0.894c-0.264,0.258-0.562,0.461-0.894,0.604
			c-0.348,0.144-0.719,0.22-1.098,0.22S115.305,44.04,114.965,43.896z M114.693,39.945c-0.363,0.363-0.568,0.849-0.568,1.363
			s0.205,0.998,0.568,1.361s0.848,0.568,1.361,0.568c0.516,0,1-0.205,1.362-0.568s0.565-0.848,0.565-1.361
			c0-0.516-0.203-1-0.565-1.363c-0.362-0.362-0.849-0.567-1.362-0.567S115.057,39.583,114.693,39.945z"/>
		<path fill="#FFFFFF" d="M119.859,44.116v-5.615h0.879v5.615H119.859z"/>
		<path fill="#FFFFFF" d="M126.029,43.654c-0.143,0.091-0.295,0.175-0.453,0.242c-0.348,0.144-0.719,0.22-1.098,0.22
			s-0.75-0.076-1.09-0.22c-0.341-0.145-0.638-0.348-0.894-0.604c-0.259-0.258-0.463-0.553-0.604-0.894
			c-0.146-0.342-0.222-0.713-0.222-1.09c0-0.379,0.076-0.75,0.222-1.098c0.143-0.334,0.348-0.637,0.604-0.895
			c0.256-0.256,0.553-0.461,0.894-0.599c0.34-0.149,0.711-0.219,1.09-0.219s0.75,0.067,1.098,0.219
			c0.037,0.017,0.082,0.039,0.121,0.054v1.037c-0.342-0.279-0.766-0.433-1.219-0.433c-0.517,0-1,0.197-1.363,0.567
			c-0.363,0.363-0.566,0.849-0.566,1.363c0,0.514,0.203,0.998,0.566,1.361s0.848,0.568,1.363,0.568c0.514,0,0.998-0.205,1.36-0.568
			c0.068-0.068,0.129-0.137,0.188-0.211v1.197H126.029z"/>
		<path fill="#FFFFFF" d="M127.033,44.116v-5.615h0.879v5.615H127.033z"/>
		<path fill="#FFFFFF" d="M129.957,40.507v3.609h-0.879v-5.882l3.527,3.867V38.5h0.887v5.873L129.957,40.507z"/>
		<path fill="#FFFFFF" d="M139.006,41.997v1.521l-0.195,0.137c-0.008,0-0.008,0-0.016,0.009c-0.008,0.008-0.023,0.014-0.031,0.014
			c-0.008,0.009-0.014,0.017-0.021,0.017c-0.009,0.008-0.017,0.016-0.031,0.016c-0.008,0.008-0.017,0.016-0.028,0.023
			c-0.009,0.006-0.017,0.006-0.023,0.014c-0.008,0.008-0.016,0.008-0.023,0.016c-0.014,0.008-0.021,0.008-0.037,0.016
			c-0.008,0.009-0.016,0.009-0.022,0.017c-0.007,0.006-0.021,0.015-0.037,0.015c-0.008,0.008-0.008,0.008-0.017,0.016
			c-0.008,0-0.008,0-0.014,0c-0.008,0.008-0.023,0.016-0.039,0.023c-0.016,0.006-0.037,0.014-0.053,0.021c0,0,0,0-0.008,0.008
			c-0.318,0.146-0.65,0.222-1.006,0.242c0,0,0,0-0.008,0c-0.017,0-0.037,0-0.062,0h-0.008c-0.022,0-0.045,0-0.068,0
			c-0.303,0-0.604-0.045-0.885-0.144c-0.008,0-0.008,0-0.008,0c-0.031-0.008-0.054-0.022-0.084-0.031
			c-0.037-0.016-0.074-0.028-0.113-0.045c-0.099-0.039-0.188-0.084-0.271-0.137c-0.229-0.121-0.439-0.279-0.621-0.469
			c-0.258-0.258-0.461-0.553-0.605-0.893c-0.105-0.258-0.182-0.531-0.205-0.812c-0.008-0.092-0.014-0.188-0.014-0.278
			c0-0.047,0-0.101,0-0.146c0.021-0.326,0.09-0.649,0.219-0.953c0.145-0.334,0.348-0.637,0.605-0.896
			c0.258-0.256,0.553-0.461,0.893-0.598c0.342-0.15,0.711-0.219,1.09-0.219c0.023,0,0.045,0,0.068,0h0.008c0.023,0,0.045,0,0.061,0
			c0.008,0,0.008,0,0.008,0c0.021,0,0.046,0,0.068,0.008c0.324,0.021,0.644,0.098,0.945,0.234c0,0,0,0.008,0.008,0.008
			c0.016,0.008,0.029,0.016,0.045,0.021c0.008,0,0.008,0,0.008,0v1.037c-0.113-0.099-0.242-0.175-0.379-0.242
			c-0.113-0.053-0.233-0.099-0.348-0.129c-0.008,0-0.016,0-0.023-0.006c-0.006,0-0.014,0-0.021,0
			c-0.008-0.009-0.017-0.009-0.031-0.009c0,0-0.008,0-0.014-0.008c-0.031-0.008-0.068-0.008-0.101-0.017c-0.008,0-0.008,0-0.016,0
			c-0.006,0-0.021-0.008-0.029-0.008s-0.008,0-0.016,0s-0.021,0-0.029-0.008c-0.008,0-0.016,0-0.023,0c-0.016,0-0.028,0-0.045,0
			c-0.008,0-0.016-0.008-0.022-0.008s-0.017,0-0.021,0c-0.008,0-0.023,0-0.031,0s-0.016,0-0.016,0c-0.015,0-0.037,0-0.054,0
			c-0.354,0-0.694,0.092-0.989,0.273c-0.009,0.008-0.023,0.016-0.039,0.022c-0.121,0.074-0.234,0.166-0.332,0.271
			c-0.031,0.031-0.068,0.062-0.101,0.099c0,0,0,0.008-0.008,0.008c-0.037,0.047-0.065,0.093-0.099,0.138
			c-0.008,0.008-0.016,0.016-0.016,0.016c-0.014,0.021-0.029,0.045-0.045,0.068c-0.008,0.008-0.016,0.021-0.016,0.028
			c-0.113,0.183-0.189,0.371-0.234,0.576c-0.008,0.008-0.008,0.008-0.008,0.015c-0.014,0.075-0.029,0.151-0.037,0.229
			c0,0.029,0,0.061,0,0.082c-0.008,0.039-0.008,0.068-0.008,0.107c0,0.028,0,0.061,0.008,0.098c0.008,0.145,0.029,0.287,0.068,0.424
			c0.09,0.318,0.258,0.605,0.492,0.84c0.362,0.363,0.848,0.568,1.36,0.568c0.017,0,0.039,0,0.054,0c0.008,0,0.016,0,0.022-0.008
			c0.008,0,0.022,0,0.028,0c0.009,0,0.017,0,0.023,0c0.008,0,0.016,0,0.023,0c0.014,0,0.021,0,0.037,0
			c0-0.009,0.008-0.009,0.016-0.009s0.021,0,0.029,0s0.008,0,0.016,0c0.053-0.008,0.113-0.022,0.166-0.03
			c0.008,0,0.008,0,0.016-0.006c0.008,0,0.023,0,0.031-0.009c0.006,0,0.014,0,0.021,0c0.008-0.008,0.016-0.008,0.023-0.008
			c0.008-0.008,0.021-0.008,0.028-0.008s0.017-0.009,0.017-0.009c0.104-0.028,0.213-0.067,0.311-0.121c0,0,0,0,0.008,0v-1.036
			h-1.061v-0.795h1.938V41.997L139.006,41.997z"/>
		<path fill="#FFFFFF" d="M145.295,42.989c-0.16,0.545-0.65,0.977-1.264,1.098c-0.113,0.021-0.229,0.029-0.342,0.029
			c-0.228,0-0.453-0.037-0.666-0.121c-0.355-0.144-0.666-0.379-0.931-0.72l0.695-0.545c0.16,0.213,0.349,0.363,0.553,0.439
			c0.166,0.068,0.349,0.082,0.517,0.045c0.287-0.053,0.521-0.242,0.59-0.469c0.076-0.258-0.1-0.484-0.258-0.637
			c-0.25-0.234-0.658-0.635-0.689-0.666l-0.688-0.65c-0.213-0.205-0.355-0.432-0.433-0.674c-0.075-0.234-0.084-0.484-0.017-0.711
			c0.068-0.242,0.214-0.455,0.416-0.629c0.189-0.158,0.425-0.271,0.675-0.316c0.272-0.061,0.562-0.039,0.832,0.061
			c0.289,0.113,0.545,0.304,0.766,0.566l-0.688,0.553c-0.287-0.348-0.582-0.348-0.742-0.317c-0.195,0.038-0.363,0.168-0.408,0.325
			c-0.029,0.105-0.021,0.279,0.213,0.509l0.938,0.899c0.138,0.135,0.304,0.295,0.425,0.408c0.241,0.219,0.407,0.469,0.491,0.734
			C145.363,42.46,145.371,42.73,145.295,42.989z"/>
		<path fill="#FFFFFF" d="M147.857,43.896c-0.342-0.145-0.637-0.348-0.896-0.604c-0.256-0.258-0.461-0.553-0.604-0.894
			c-0.144-0.342-0.219-0.713-0.219-1.09c0-0.379,0.075-0.75,0.219-1.098c0.145-0.334,0.35-0.629,0.604-0.895
			c0.259-0.256,0.554-0.453,0.896-0.599c0.34-0.143,0.711-0.219,1.09-0.219c0.377,0,0.748,0.076,1.096,0.219
			c0.334,0.146,0.629,0.343,0.895,0.599c0.256,0.266,0.453,0.561,0.599,0.895c0.144,0.348,0.219,0.719,0.219,1.098
			c0,0.377-0.075,0.748-0.219,1.09c-0.146,0.341-0.343,0.636-0.599,0.894c-0.266,0.258-0.561,0.461-0.895,0.604
			c-0.348,0.144-0.719,0.22-1.096,0.22C148.568,44.116,148.197,44.04,147.857,43.896z M147.584,39.945
			c-0.363,0.363-0.568,0.849-0.568,1.363s0.205,0.998,0.568,1.361s0.848,0.568,1.363,0.568c0.514,0,0.998-0.205,1.361-0.568
			c0.362-0.363,0.567-0.848,0.567-1.361c0-0.516-0.205-1-0.567-1.363c-0.363-0.362-0.849-0.567-1.361-0.567
			C148.432,39.378,147.947,39.583,147.584,39.945z"/>
		<path fill="#FFFFFF" d="M155.977,44.116h-2.354h-0.871v-5.615h0.877v4.819h2.348V44.116z"/>
		<path fill="#FFFFFF" d="M157.258,43.671c-0.219-0.168-0.387-0.371-0.5-0.604c-0.129-0.258-0.189-0.545-0.189-0.855v-3.709h0.88
			v3.709c0,0.332,0.12,0.59,0.348,0.764c0.213,0.166,0.521,0.267,0.854,0.267c0.326,0,0.636-0.101,0.855-0.267
			c0.227-0.174,0.34-0.432,0.34-0.764v-3.709h0.887v3.709c0,0.311-0.067,0.598-0.188,0.855c-0.121,0.233-0.289,0.438-0.5,0.604
			c-0.371,0.287-0.862,0.445-1.394,0.445C158.121,44.116,157.629,43.958,157.258,43.671z"/>
		<path fill="#FFFFFF" d="M165.467,39.288h-1.545v4.828h-0.885v-4.828h-1.545v-0.787h3.975V39.288L165.467,39.288z"/>
		<path fill="#FFFFFF" d="M166.279,44.116v-5.615h0.879v5.615H166.279z"/>
		<path fill="#FFFFFF" d="M169.863,43.896c-0.342-0.145-0.637-0.348-0.896-0.604c-0.256-0.258-0.461-0.553-0.604-0.894
			c-0.143-0.342-0.219-0.713-0.219-1.09c0-0.379,0.076-0.75,0.219-1.098c0.145-0.334,0.35-0.629,0.604-0.895
			c0.259-0.256,0.554-0.453,0.896-0.599c0.34-0.143,0.711-0.219,1.09-0.219c0.377,0,0.748,0.076,1.096,0.219
			c0.334,0.146,0.629,0.343,0.895,0.599c0.257,0.266,0.453,0.561,0.599,0.895c0.144,0.348,0.22,0.719,0.22,1.098
			c0,0.377-0.076,0.748-0.22,1.09c-0.146,0.341-0.342,0.636-0.599,0.894c-0.266,0.258-0.561,0.461-0.895,0.604
			c-0.348,0.144-0.719,0.22-1.096,0.22C170.574,44.116,170.203,44.04,169.863,43.896z M169.59,39.945
			c-0.363,0.363-0.568,0.849-0.568,1.363s0.205,0.998,0.568,1.361s0.848,0.568,1.363,0.568c0.514,0,0.998-0.205,1.361-0.568
			c0.362-0.363,0.567-0.848,0.567-1.361c0-0.516-0.205-1-0.567-1.363c-0.363-0.362-0.849-0.567-1.361-0.567
			C170.438,39.378,169.953,39.583,169.59,39.945z"/>
		<path fill="#FFFFFF" d="M175.635,40.507v3.609h-0.879v-5.882l3.527,3.867V38.5h0.887v5.873L175.635,40.507z"/>
		<path fill="#FFFFFF" d="M183.322,42.989c-0.16,0.545-0.65,0.977-1.264,1.098c-0.113,0.021-0.229,0.029-0.343,0.029
			c-0.228,0-0.452-0.037-0.666-0.121c-0.354-0.144-0.666-0.379-0.93-0.72l0.694-0.545c0.16,0.213,0.349,0.363,0.554,0.439
			c0.166,0.068,0.348,0.082,0.516,0.045c0.287-0.053,0.521-0.242,0.591-0.469c0.075-0.258-0.101-0.484-0.259-0.637
			c-0.25-0.234-0.657-0.635-0.688-0.666l-0.688-0.65c-0.213-0.205-0.354-0.432-0.432-0.674c-0.076-0.234-0.084-0.484-0.017-0.711
			c0.068-0.242,0.213-0.455,0.416-0.629c0.189-0.158,0.424-0.271,0.674-0.316c0.273-0.061,0.562-0.039,0.832,0.061
			c0.289,0.113,0.545,0.304,0.767,0.566l-0.688,0.553c-0.287-0.348-0.582-0.348-0.742-0.317c-0.195,0.038-0.363,0.168-0.408,0.325
			c-0.029,0.105-0.021,0.279,0.213,0.509l0.938,0.899c0.137,0.135,0.303,0.295,0.424,0.408c0.242,0.219,0.408,0.469,0.492,0.734
			C183.391,42.46,183.398,42.73,183.322,42.989z"/>
	</g>
	<g>
		<g>
			<rect x="50.808" y="36.122" fill="#FFFFFF" width="134.348" height="0.717"/>
		</g>
	</g>
	<g>
		<g>
			<path fill="#FFFFFF" d="M43.049,30.925H38v3.052h5.049v3.881c-0.785,0.149-1.595,0.25-2.422,0.313
				c-9.059,0.744-12.954-5.481-12.136-12.134c0.812-6.6,5.783-10.686,11.889-12.132c-0.097,0-0.195,0.006-0.294-0.002
				c-8.6-0.659-15.132,6.774-15.132,15.131c0,8.358,6.776,15.133,15.132,15.133c2.137,0,4.169-0.442,6.013-1.24v-4.012V36.87v-2.896
				v-3.051L43.049,30.925L43.049,30.925z"/>
			<path fill="#FFFFFF" d="M29.214,44.009c-14.797-13.178-3.946-27.284-3.946-27.284c1.101-1.535,0.256-1.262,0-1.107
				c-2.167,1.25-4.011,4.697-4.584,6.628c-0.231,0.777-0.712,0.492-0.825,0.317c-2.026-3.621-6.689-4.437-6.689-4.437
				c-2.417-0.518-1.663,0.341-1.331,0.458c6.436,2.248,6.614,5.661,6.535,8.187c-0.028,0.968-0.755,0.37-0.887,0.202
				c-1.567-2.03-5.316-2.393-7.025-1.808c-1.766,0.6-0.742,0.849-0.483,0.83c4.623-0.355,6.633,1.68,7.532,3.33
				c2.598,9.62,4.646,12.639,10.044,15.043C27.938,44.54,31.234,45.807,29.214,44.009z"/>
			<path fill="#FFFFFF" d="M8.213,18.83c0,0-1.086,4.561,3.531,4.93C11.744,23.76,13.314,19.798,8.213,18.83z"/>
			<path fill="#FFFFFF" d="M5.284,30.025c0,0,4.952,1.25,5.625-2.911C10.909,27.114,6.645,25.46,5.284,30.025z"/>
			<path fill="#FFFFFF" d="M2.055,24.156c0,0,3.322,3.559,6.456,0.462C8.511,24.618,6.004,21.072,2.055,24.156z"/>
			<path fill="#FFFFFF" d="M0.553,18.831c0,0,2.234,4.202,6.121,1.914C6.674,20.745,5.229,16.746,0.553,18.831z"/>
			<path fill="#FFFFFF" d="M4.567,14.685c0,0,2.232,4.199,6.121,1.913C10.688,16.598,9.242,12.601,4.567,14.685z"/>
			<path fill="#FFFFFF" d="M17.573,13.077c0,0-3.375,3.521,0.472,5.864C18.045,18.941,21.525,16.161,17.573,13.077z"/>
		</g>
	</g>
</g>
<g>
	<path fill="#FF8300" d="M197.666,7.342c0.409-0.002,0.737,0.328,0.737,0.736l0.021,41.875c0,0.406-0.329,0.737-0.738,0.737
		l-9.902,0.006c-0.404,0-0.736-0.327-0.736-0.737l-0.018-41.876c0-0.406,0.33-0.738,0.733-0.738L197.666,7.342z"/>
	<g>
		<path fill="#FFFFFF" d="M188.701,48.818c-0.096-0.413-0.163-1.077-0.164-1.73c0-0.949,0.163-1.558,0.533-2.004
			c0.283-0.382,0.719-0.622,1.296-0.622c0.719-0.001,1.34,0.478,1.611,1.241h0.034c0.163-0.697,0.739-1.515,1.828-1.515
			c0.632,0,1.111,0.25,1.471,0.629c0.469,0.502,0.688,1.331,0.688,2.527c0,0.654-0.044,1.154-0.089,1.471L188.701,48.818z
			 M191.706,47.87v-0.86c0-0.991-0.533-1.578-1.24-1.578c-0.852,0-1.198,0.644-1.198,1.602c0,0.437,0.034,0.687,0.066,0.839
			L191.706,47.87z M195.214,47.868c0.033-0.195,0.045-0.457,0.044-0.795c0-0.98-0.359-1.883-1.426-1.883
			c-0.991,0-1.418,0.86-1.418,1.896l0.002,0.784L195.214,47.868z"/>
		<path fill="#FFFFFF" d="M193.459,42.356c1.296-0.021,1.828-0.839,1.827-1.798c0-0.687-0.12-1.111-0.26-1.458l0.674-0.174
			c0.152,0.337,0.339,0.925,0.339,1.763c0.001,1.611-1.078,2.592-2.656,2.592c-1.602,0.001-2.854-0.944-2.854-2.48
			c0-1.72,1.512-2.169,2.481-2.169c0.195,0,0.348,0.011,0.456,0.033L193.459,42.356z M192.771,39.557
			c-0.599-0.011-1.558,0.251-1.558,1.318c0,0.979,0.895,1.394,1.558,1.469V39.557z"/>
		<path fill="#FFFFFF" d="M189.394,36.288h1.264v-1.372h0.73v1.372l2.842-0.001c0.653-0.001,1.024-0.186,1.024-0.72
			c0-0.262-0.021-0.414-0.066-0.556l0.731-0.043c0.063,0.185,0.131,0.479,0.131,0.851c0,0.445-0.152,0.806-0.402,1.033
			c-0.294,0.262-0.762,0.371-1.383,0.372l-2.875,0.001v0.816h-0.729v-0.817l-0.969,0.001L189.394,36.288z"/>
		<path fill="#FFFFFF" d="M194.661,30.121c0.458,0,0.905-0.023,1.264-0.078l0.001,0.86l-0.663,0.088v0.034
			c0.414,0.281,0.783,0.858,0.783,1.61c0,1.066-0.75,1.61-1.514,1.611c-1.274,0-1.97-1.131-1.961-3.168h-0.107
			c-0.436,0-1.23,0.12-1.221,1.197c0.001,0.501,0.143,1.013,0.393,1.383l-0.643,0.219c-0.271-0.436-0.457-1.078-0.457-1.743
			c0-1.622,1.099-2.015,2.154-2.015L194.661,30.121z M193.236,31.059c-0.022,1.043,0.165,2.23,1.188,2.23
			c0.632-0.001,0.915-0.414,0.915-0.894c0-0.697-0.436-1.143-0.883-1.295c-0.098-0.032-0.208-0.043-0.305-0.043L193.236,31.059z"/>
		<path fill="#FFFFFF" d="M190.651,25.905l2.951-1.036c0.491-0.175,0.927-0.316,1.362-0.425v-0.033
			c-0.436-0.12-0.871-0.271-1.362-0.446l-2.951-1.022v-1.002l5.272,2.066v0.915l-5.271,2.005L190.651,25.905z"/>
		<path fill="#FFFFFF" d="M189.734,19.259v0.021l0.665,1.23l-0.729,0.185l-0.829-1.545v-0.817l7.079-0.003v0.926L189.734,19.259z"/>
		<path fill="#FFFFFF" d="M196.039,15.04c0.001,0.371-0.293,0.632-0.686,0.632s-0.687-0.272-0.687-0.653
			c0-0.382,0.282-0.643,0.686-0.643c0.393,0,0.687,0.261,0.687,0.653V15.04z"/>
		<path fill="#FFFFFF" d="M196.037,11.238c0,1.382-1.294,2.331-3.636,2.354c-2.385,0-3.683-1.033-3.683-2.471
			c0-1.48,1.327-2.343,3.582-2.344c2.406-0.001,3.735,0.903,3.735,2.449L196.037,11.238L196.037,11.238z M195.299,11.195
			c-0.003-0.97-1.146-1.438-2.954-1.437c-1.741,0-2.886,0.436-2.885,1.438c0,0.871,1.111,1.438,2.888,1.437
			c1.838,0.021,2.951-0.546,2.951-1.428V11.195z"/>
	</g>
</g>
</svg>
